<svg width="20" height="22" viewBox="0 0 20 22" fill="none" xmlns="http://www.w3.org/2000/svg">
<path fill-rule="evenodd" clip-rule="evenodd" d="M8.94358 0.25H11.0564C12.8942 0.249984 14.3498 0.249972 15.489 0.403135C16.6614 0.560763 17.6104 0.89288 18.3588 1.64124C19.1071 2.38961 19.4392 3.33856 19.5969 4.51098C19.75 5.65019 19.75 7.10583 19.75 8.94359V13.0564C19.75 14.8942 19.75 16.3498 19.5969 17.489C19.4392 18.6614 19.1071 19.6104 18.3588 20.3588C17.6104 21.1071 16.6614 21.4392 15.489 21.5969C14.3498 21.75 12.8942 21.75 11.0564 21.75H8.94359C7.10583 21.75 5.65019 21.75 4.51098 21.5969C3.33856 21.4392 2.38961 21.1071 1.64124 20.3588C0.89288 19.6104 0.560763 18.6614 0.403135 17.489C0.249972 16.3498 0.249984 14.8942 0.25 13.0564V8.94358C0.249984 7.10582 0.249972 5.65019 0.403135 4.51098C0.560763 3.33856 0.89288 2.38961 1.64124 1.64124C2.38961 0.89288 3.33856 0.560763 4.51098 0.403135C5.65019 0.249972 7.10582 0.249984 8.94358 0.25ZM4.71085 1.88976C3.70476 2.02502 3.12511 2.27869 2.7019 2.7019C2.27869 3.12511 2.02502 3.70476 1.88976 4.71085C1.75159 5.73851 1.75 7.09318 1.75 9V13C1.75 14.9068 1.75159 16.2615 1.88976 17.2892C2.02502 18.2952 2.27869 18.8749 2.7019 19.2981C3.12511 19.7213 3.70476 19.975 4.71085 20.1102C5.73851 20.2484 7.09318 20.25 9 20.25H11C12.9068 20.25 14.2615 20.2484 15.2892 20.1102C16.2952 19.975 16.8749 19.7213 17.2981 19.2981C17.7213 18.8749 17.975 18.2952 18.1102 17.2892C18.2484 16.2615 18.25 14.9068 18.25 13V9C18.25 7.09318 18.2484 5.73851 18.1102 4.71085C17.975 3.70476 17.7213 3.12511 17.2981 2.7019C16.8749 2.27869 16.2952 2.02502 15.2892 1.88976C14.2615 1.75159 12.9068 1.75 11 1.75H9C7.09318 1.75 5.73851 1.75159 4.71085 1.88976ZM5.25 7C5.25 6.58579 5.58579 6.25 6 6.25H14C14.4142 6.25 14.75 6.58579 14.75 7C14.75 7.41421 14.4142 7.75 14 7.75H6C5.58579 7.75 5.25 7.41421 5.25 7ZM5.25 11C5.25 10.5858 5.58579 10.25 6 10.25H14C14.4142 10.25 14.75 10.5858 14.75 11C14.75 11.4142 14.4142 11.75 14 11.75H6C5.58579 11.75 5.25 11.4142 5.25 11ZM5.25 15C5.25 14.5858 5.58579 14.25 6 14.25H11C11.4142 14.25 11.75 14.5858 11.75 15C11.75 15.4142 11.4142 15.75 11 15.75H6C5.58579 15.75 5.25 15.4142 5.25 15Z" fill="#1C274C"/>
</svg>
