<svg width="142" height="142" viewBox="0 0 142 142" fill="none" xmlns="http://www.w3.org/2000/svg">
<path d="M63.5288 5.20659C66.114 -1.73553 75.886 -1.73553 78.4712 5.20659L82.6755 16.4962L91.086 7.901C96.2577 2.6157 105.185 6.60965 104.737 14.0082L104.008 26.0402L115.17 21.6255C122.034 18.9109 128.573 26.2082 125.169 32.784L119.633 43.4778L131.617 44.0071C138.986 44.3326 142.006 53.6715 136.234 58.2874L126.849 65.7941L137.583 71.1758C144.183 74.485 143.162 84.2507 136.021 86.1087L124.408 89.1302L132.035 98.4338C136.726 104.155 131.84 112.659 124.564 111.437L112.732 109.451L115.935 121.068C117.904 128.211 109.998 133.983 103.846 129.894L93.8408 123.243L92.0643 135.165C90.9718 142.495 81.4134 144.537 77.4483 138.287L71 128.122L64.5517 138.287C60.5866 144.537 51.0281 142.495 49.9357 135.165L48.1592 123.243L38.1541 129.894C32.0018 133.983 24.0962 128.211 26.0654 121.068L29.2678 109.451L17.4359 111.437C10.1603 112.659 5.27429 104.155 9.96461 98.4338L17.5922 89.1302L5.97934 86.1087C-1.16156 84.2507 -2.18301 74.485 4.41742 71.1758L15.1514 65.7941L5.76549 58.2874C-0.00600864 53.6715 3.01369 44.3326 10.383 44.0071L22.3673 43.4778L16.8313 32.784C13.4271 26.2082 19.9658 18.9109 26.8298 21.6255L37.9922 26.0402L37.2633 14.0082C36.8151 6.60964 45.7423 2.6157 50.914 7.901L59.3245 16.4962L63.5288 5.20659Z" fill="#5E55DF"/>
<path d="M104.568 83.872L70.948 106.668L37 83.872V69.604L70.948 91.088L104.568 69.604V83.872ZM76.852 94.368H64.88V35H76.852V94.368Z" fill="#AFAAEF"/>
</svg>
