<svg width="428" height="428" viewBox="0 0 428 428" fill="none" xmlns="http://www.w3.org/2000/svg">
<path d="M191.481 15.6931C199.273 -5.23104 228.727 -5.23103 236.519 15.6931L249.191 49.7211L274.541 23.8143C290.129 7.88393 317.036 19.922 315.685 42.222L313.488 78.4873L347.133 65.1812C367.821 56.9991 387.529 78.9938 377.269 98.8137L360.583 131.046L396.705 132.641C418.916 133.622 428.018 161.77 410.622 175.683L382.332 198.309L414.686 214.53C434.58 224.504 431.501 253.939 409.978 259.539L374.975 268.646L397.966 296.688C412.103 313.931 397.376 339.562 375.447 335.881L339.784 329.895L349.437 364.909C355.372 386.44 331.544 403.836 313 391.511L282.844 371.466L277.489 407.398C274.197 429.493 245.387 435.646 233.436 416.807L214 386.171L194.564 416.807C182.613 435.646 153.803 429.493 150.511 407.398L145.156 371.466L115 391.511C96.4563 403.836 72.6279 386.44 78.5632 364.909L88.2156 329.895L52.5531 335.881C30.6239 339.562 15.8972 313.931 30.0342 296.688L53.0245 268.646L18.0222 259.539C-3.50105 253.939 -6.57979 224.504 13.3145 214.53L45.6676 198.309L17.3777 175.683C-0.0181106 161.77 9.08353 133.622 31.2952 132.641L67.4168 131.046L50.7309 98.8137C40.4705 78.9938 60.1787 56.9991 80.8671 65.1812L114.512 78.4873L112.315 42.222C110.964 19.922 137.871 7.88393 153.459 23.8143L178.809 49.7211L191.481 15.6931Z" fill="#5E55DF"/>
<path d="M144.866 259V241.125H99.8976V228.98L138.077 169.126H158.257V229.416H170.651V241.125H158.257V259H144.866ZM112.852 229.602H144.99V180.15H144.617L112.852 229.229V229.602ZM213.938 260.495C192.45 260.495 179.62 242.62 179.62 214.094V213.969C179.62 185.444 192.45 167.631 213.938 167.631C235.363 167.631 248.256 185.444 248.256 213.969V214.094C248.256 242.62 235.363 260.495 213.938 260.495ZM213.938 248.848C226.706 248.848 234.18 235.644 234.18 214.094V213.969C234.18 192.419 226.706 179.34 213.938 179.34C201.107 179.34 193.696 192.419 193.696 213.969V214.094C193.696 235.644 201.107 248.848 213.938 248.848ZM303.438 259V241.125H258.47V228.98L296.65 169.126H316.829V229.416H329.224V241.125H316.829V259H303.438ZM271.425 229.602H303.563V180.15H303.189L271.425 229.229V229.602Z" fill="white"/>
</svg>
