<svg width="20" height="22" viewBox="0 0 20 22" fill="none" xmlns="http://www.w3.org/2000/svg">
<path d="M13.5303 11.5303C13.8232 11.2374 13.8232 10.7626 13.5303 10.4697L11.0303 7.96967C10.7374 7.67678 10.2626 7.67678 9.96967 7.96967C9.67678 8.26256 9.67678 8.73744 9.96967 9.03033L11.1893 10.25H4C3.58579 10.25 3.25 10.5858 3.25 11C3.25 11.4142 3.58579 11.75 4 11.75H11.1893L9.96967 12.9697C9.67678 13.2626 9.67678 13.7374 9.96967 14.0303C10.2626 14.3232 10.7374 14.3232 11.0303 14.0303L13.5303 11.5303Z" fill="#1C274C"/>
<path fill-rule="evenodd" clip-rule="evenodd" d="M11.9451 0.250001H13.0549C14.4225 0.24998 15.5248 0.249964 16.3918 0.366524C17.2919 0.487541 18.0497 0.746434 18.6517 1.34835C19.2536 1.95027 19.5125 2.70814 19.6335 3.60825C19.75 4.47522 19.75 5.57754 19.75 6.94513V15.0549C19.75 16.4225 19.75 17.5248 19.6335 18.3918C19.5125 19.2919 19.2536 20.0497 18.6517 20.6517C18.0497 21.2536 17.2919 21.5125 16.3918 21.6335C15.5248 21.75 14.4225 21.75 13.0549 21.75H11.9451C10.5775 21.75 9.47522 21.75 8.60825 21.6335C7.70814 21.5125 6.95027 21.2536 6.34835 20.6517C5.94855 20.2518 5.70008 19.7832 5.54283 19.2498C4.59156 19.2486 3.79901 19.2381 3.15689 19.1518C2.39294 19.0491 1.7306 18.8268 1.20191 18.2981C0.673212 17.7694 0.45093 17.1071 0.348219 16.3431C0.249958 15.6123 0.249977 14.6865 0.250001 13.5537V8.44631C0.249977 7.31349 0.249958 6.38774 0.348219 5.65689C0.45093 4.89294 0.673212 4.2306 1.20191 3.7019C1.7306 3.17321 2.39294 2.95093 3.15689 2.84822C3.79901 2.76189 4.59156 2.75142 5.54283 2.75017C5.70008 2.21677 5.94855 1.74816 6.34835 1.34835C6.95027 0.746434 7.70814 0.487541 8.60825 0.366524C9.47522 0.249964 10.5775 0.24998 11.9451 0.250001ZM5.25 15.0549C5.24999 16.1048 5.24997 16.9983 5.30271 17.7491C4.46829 17.7459 3.84797 17.7312 3.35676 17.6652C2.75914 17.5848 2.46611 17.441 2.26257 17.2374C2.05903 17.0339 1.91519 16.7409 1.83484 16.1432C1.7516 15.5241 1.75 14.6997 1.75 13.5V8.5C1.75 7.30029 1.7516 6.47595 1.83484 5.85676C1.91519 5.25914 2.05903 4.9661 2.26257 4.76256C2.46611 4.55902 2.75914 4.41519 3.35676 4.33484C3.84797 4.2688 4.46829 4.25415 5.30271 4.25091C5.24997 5.00167 5.24999 5.89522 5.25 6.94512L5.25 7C5.25 7.41422 5.58579 7.75 6 7.75C6.41422 7.75 6.75 7.41422 6.75 7C6.75 5.56459 6.7516 4.56347 6.85315 3.80812C6.9518 3.07435 7.13225 2.68577 7.40901 2.40901C7.68578 2.13225 8.07435 1.9518 8.80812 1.85315C9.56347 1.75159 10.5646 1.75 12 1.75H13C14.4354 1.75 15.4365 1.75159 16.1919 1.85315C16.9257 1.9518 17.3142 2.13225 17.591 2.40901C17.8678 2.68577 18.0482 3.07435 18.1469 3.80812C18.2484 4.56347 18.25 5.56459 18.25 7V15C18.25 16.4354 18.2484 17.4365 18.1469 18.1919C18.0482 18.9257 17.8678 19.3142 17.591 19.591C17.3142 19.8678 16.9257 20.0482 16.1919 20.1469C15.4365 20.2484 14.4354 20.25 13 20.25H12C10.5646 20.25 9.56347 20.2484 8.80812 20.1469C8.07435 20.0482 7.68578 19.8678 7.40901 19.591C7.13225 19.3142 6.9518 18.9257 6.85315 18.1919C6.7516 17.4365 6.75 16.4354 6.75 15C6.75 14.5858 6.41422 14.25 6 14.25C5.58579 14.25 5.25 14.5858 5.25 15L5.25 15.0549Z" fill="#1C274C"/>
</svg>
