<svg width="806" height="217" viewBox="0 0 806 217" fill="none" xmlns="http://www.w3.org/2000/svg">
<path d="M358.511 45.7128C324.316 11.445 268.568 11.445 234.298 45.7128L185.344 94.6665C185.125 94.8857 185.052 95.178 184.906 95.3972L136.61 143.621C117.467 162.764 84.0753 162.764 64.9303 143.621C45.2028 123.82 45.2028 91.6709 64.9303 71.9414C84.6578 52.2119 116.88 52.2139 136.61 71.9414C143.843 79.1748 155.607 79.1748 162.84 71.9414C170.074 64.708 170.074 52.944 162.84 45.7106C128.645 11.4428 72.8972 11.4428 38.7009 45.7106C4.43305 79.9785 4.43305 135.654 38.7009 169.924C55.2867 186.51 77.3523 195.643 100.807 195.643C124.261 195.643 146.327 186.51 162.913 169.924L211.866 120.97C212.086 120.751 212.159 120.459 212.305 120.239L260.601 71.9429C280.329 52.2154 312.551 52.2154 332.281 71.9429C352.008 91.7439 352.008 123.893 332.281 143.622C313.138 162.765 279.746 162.765 260.601 143.622C253.368 136.389 241.604 136.389 234.37 143.622C227.137 150.856 227.137 162.62 234.37 169.853C250.956 186.439 273.022 195.572 296.476 195.572C319.931 195.572 341.996 186.439 358.582 169.853C392.704 135.658 392.704 79.9098 358.509 45.7134L358.511 45.7128Z" fill="#5E55DF"/>
<path d="M430 171V45H452.528V171H430Z" fill="#616974"/>
<path d="M474.707 171V45H494.965L556.349 133.279H556.873V45H579.227V171H559.143L497.584 82.3721H497.148V171H474.707Z" fill="#616974"/>
<path d="M601.493 171V45H681.825V63.948H624.021V101.233H676.848V119.57H624.021V171H601.493Z" fill="#616974"/>
</svg>
